<?xml version="1.0" encoding="UTF-8"?>
<!DOCTYPE svg PUBLIC "-//W3C//DTD SVG 1.1//EN" "http://www.w3.org/Graphics/SVG/1.1/DTD/svg11.dtd">
<!-- Creator: CorelDRAW -->
<svg xmlns="http://www.w3.org/2000/svg" xml:space="preserve" width="6.82666in" height="6.82666in" style="shape-rendering:geometricPrecision; text-rendering:geometricPrecision; image-rendering:optimizeQuality; fill-rule:evenodd; clip-rule:evenodd"
viewBox="0 0 6.82666 6.82666"
 xmlns:xlink="http://www.w3.org/1999/xlink">
 <defs>
  <style type="text/css">
   <![CDATA[
    .fil1 {fill:none}
    .fil0 {fill:#212121;fill-rule:nonzero}
   ]]>
  </style>
 </defs>
 <g id="Layer_x0020_1">
  <metadata id="CorelCorpID_0Corel-Layer"/>
  <path class="fil0" d="M3.1508 4.91525c0.256929,-0.620295 0.550925,-1.1751 0.881205,-1.66575 0.331197,-0.492004 0.699098,-0.919819 1.10293,-1.28478l0.0195866 -0.0141654c0.0915472,-0.051185 0.170618,-0.0616299 0.234717,-0.0232717 0.0652008,0.0390236 0.0954646,0.115016 0.0849882,0.234083l-0.00625197 0.0270866c-0.185213,0.51137 -0.442331,1.01353 -0.77289,1.50625 -0.329713,0.491472 -0.73226,0.973248 -1.20916,1.44511l-0.146024 -0.146835 -0.189098 -0.0777244zm1.05787 -1.54742c-0.316941,0.470827 -0.599858,1.00262 -0.848031,1.5966 0.456398,-0.454406 0.841854,-0.917154 1.15777,-1.38806 0.315972,-0.470976 0.562654,-0.950453 0.741465,-1.43821 -0.383736,0.349539 -0.73437,0.759012 -1.0512,1.22967zm1.07139 -1.25805c-0.00456299,-0.00272835 -0.00415354,0.00166142 -0.00637795,0.00823622l0.000933071 0.000338583c0.00585433,-0.00449606 0.0104291,-0.00559055 0.00544488,-0.0085748z"/>
  <path class="fil0" d="M2.50663 5.82541c0.0721457,-0.171972 0.122079,-0.330921 0.16485,-0.467102 0.0497402,-0.158354 0.0904016,-0.287807 0.147693,-0.382402 0.113039,-0.186634 0.256343,-0.232925 0.525665,-0.0698071l0.00833465 0.00541732c0.0919921,0.0683228 0.151453,0.145823 0.182575,0.227815 0.0411417,0.108402 0.0322598,0.219953 -0.0171063,0.32589 -0.0447717,0.0960787 -0.123898,0.186941 -0.228996,0.264661 -0.167354,0.123756 -0.404862,0.216437 -0.674681,0.242614l-0.177256 0.0171969 0.0689213 -0.164283zm0.368181 -0.403772c-0.029563,0.094122 -0.0623976,0.198654 -0.102874,0.310193 0.155043,-0.0362323 0.289472,-0.0976732 0.391039,-0.172783 0.0762638,-0.0563976 0.132378,-0.119539 0.162335,-0.183827 0.0253622,-0.0544291 0.0307205,-0.10965 0.0112717,-0.16089 -0.0166693,-0.0439173 -0.0514882,-0.0878583 -0.107252,-0.129866 -0.127244,-0.0757323 -0.188339,-0.0648504 -0.228488,0.00144094 -0.0427441,0.0705748 -0.0802087,0.189843 -0.126031,0.335732z"/>
  <path class="fil0" d="M3.89787 0.917252l0.28111 0.188913c0.0899173,0.0604213 0.145441,0.153465 0.162449,0.254673 0.0166299,0.0989646 -0.00377953,0.20613 -0.065248,0.297602l-1.90829 2.83964 -0.0404173 0.0358346 -0.822602 0.414453 -0.169154 0.0852244 0.0149843 -0.188559 0.0729764 -0.918217 0.0179173 -0.0508307 1.90829 -2.83964c0.0615315,-0.0915669 0.153165,-0.15102 0.251209,-0.173035 0.100126,-0.0224882 0.207118,-0.00631102 0.296776,0.053937zm0.16278 0.365583l-0.28111 -0.188913c-0.0391772,-0.0263268 -0.0867402,-0.0332165 -0.131776,-0.0231024 -0.047122,0.0105787 -0.0913228,0.0393898 -0.121209,0.0838622l-1.89255 2.81622 -0.055815 0.702248 0.628752 -0.316783 1.89257 -2.81625c0.0299488,-0.0445669 0.0399449,-0.0965079 0.0319173,-0.144272 -0.00764961,-0.0455157 -0.0318622,-0.0868543 -0.0707795,-0.113004z"/>
  <polygon class="fil0" points="1.5891,3.84682 2.33872,4.35058 2.22039,4.52725 1.47077,4.02349 "/>
  <polygon class="fil0" points="3.78423,1.58087 2.161,3.99633 1.98433,3.878 3.60756,1.46254 "/>
 </g>
 <rect class="fil1" width="6.82666" height="6.82666"/>
</svg>
